<svg width="175" height="25" viewBox="0 0 175 25" fill="none" xmlns="http://www.w3.org/2000/svg">
<path id="Vector_6" fill-rule="evenodd" clip-rule="evenodd" d="M162.788 0.724609C156.397 0.724609 151.255 5.84194 151.255 12.2027C151.255 17.2722 154.571 21.5765 159.136 23.107C159.713 23.2026 159.905 22.8678 159.905 22.5331C159.905 22.2461 159.905 21.5287 159.905 20.5722C156.685 21.2896 156.013 19.0418 156.013 19.0418C155.484 17.7027 154.715 17.3679 154.715 17.3679C153.658 16.6505 154.811 16.6505 154.811 16.6505C155.965 16.7462 156.589 17.8462 156.589 17.8462C157.598 19.6157 159.28 19.0896 159.953 18.8027C160.049 18.0375 160.338 17.5592 160.674 17.2722C158.127 16.9853 155.436 15.981 155.436 11.581C155.436 10.3375 155.868 9.28538 156.637 8.52017C156.541 8.23322 156.109 7.0854 156.733 5.45934C156.733 5.45934 157.695 5.17238 159.905 6.65497C160.818 6.41585 161.827 6.27237 162.788 6.27237C163.749 6.27237 164.759 6.41585 165.672 6.65497C167.882 5.17238 168.843 5.45934 168.843 5.45934C169.468 7.03758 169.084 8.18539 168.939 8.52017C169.66 9.3332 170.141 10.3375 170.141 11.581C170.141 15.981 167.45 16.9375 164.855 17.2244C165.287 17.5592 165.624 18.2766 165.624 19.3287C165.624 20.8592 165.624 22.1026 165.624 22.4852C165.624 22.7722 165.816 23.1548 166.441 23.0591C171.006 21.5765 174.322 17.2722 174.322 12.2027C174.322 5.84194 169.18 0.724609 162.788 0.724609Z" fill="#131318"/>
</svg>