<svg width="175" height="25" viewBox="0 0 175 25" fill="none" xmlns="http://www.w3.org/2000/svg">
<path id="Vector_3" d="M107.198 2.88679C110.417 2.88679 110.799 2.89879 112.07 2.9565C112.835 2.96582 113.592 3.10555 114.309 3.36963C114.83 3.56924 115.302 3.87503 115.696 4.2673C116.09 4.65957 116.397 5.12963 116.598 5.64723C116.863 6.36098 117.004 7.11472 117.013 7.8757C117.071 9.14135 117.083 9.52076 117.083 12.7246C117.083 15.9285 117.071 16.3079 117.013 17.5735C117.004 18.3345 116.863 19.0882 116.598 19.802C116.397 20.3196 116.09 20.7896 115.696 21.1819C115.302 21.5742 114.83 21.88 114.309 22.0796C113.592 22.3437 112.835 22.4834 112.07 22.4927C110.799 22.5499 110.418 22.5624 107.198 22.5624C103.978 22.5624 103.597 22.5504 102.326 22.4927C101.561 22.4834 100.804 22.3437 100.087 22.0796C99.5667 21.88 99.0944 21.5742 98.7002 21.1819C98.3061 20.7896 97.9988 20.3196 97.7982 19.802C97.5329 19.0882 97.3925 18.3345 97.3831 17.5735C97.3257 16.3079 97.3131 15.9285 97.3131 12.7246C97.3131 9.52076 97.3252 9.14135 97.3831 7.8757C97.3925 7.11472 97.5329 6.36098 97.7982 5.64723C97.9988 5.12963 98.3061 4.65957 98.7002 4.2673C99.0944 3.87503 99.5667 3.56924 100.087 3.36963C100.804 3.10555 101.561 2.96582 102.326 2.9565C103.598 2.89936 103.979 2.88679 107.198 2.88679ZM107.198 0.724609C103.926 0.724609 103.513 0.738323 102.227 0.796606C101.226 0.816415 100.236 1.00498 99.2991 1.35429C98.495 1.6558 97.7667 2.12829 97.165 2.7388C96.551 3.33784 96.0758 4.06308 95.7727 4.86384C95.4217 5.79671 95.2322 6.78206 95.2123 7.77799C95.1549 9.05678 95.1411 9.46705 95.1411 12.724C95.1411 15.981 95.1549 16.3913 95.2135 17.6712C95.2334 18.6672 95.4228 19.6525 95.7738 20.5854C96.0766 21.386 96.5514 22.1113 97.165 22.7104C97.767 23.3211 98.4957 23.7936 99.3002 24.0949C100.238 24.4442 101.228 24.6328 102.228 24.6526C103.514 24.7098 103.925 24.7246 107.199 24.7246C110.474 24.7246 110.884 24.7109 112.17 24.6526C113.171 24.6328 114.161 24.4442 115.098 24.0949C115.899 23.786 116.626 23.3143 117.233 22.7097C117.84 22.1052 118.314 21.3813 118.624 20.5842C118.975 19.6514 119.164 18.666 119.184 17.6701C119.241 16.3913 119.255 15.981 119.255 12.724C119.255 9.46705 119.241 9.05678 119.183 7.77684C119.163 6.78092 118.973 5.79557 118.622 4.8627C118.32 4.06204 117.845 3.33681 117.231 2.73766C116.629 2.12701 115.901 1.65451 115.096 1.35315C114.159 1.00384 113.169 0.815272 112.168 0.795463C110.883 0.738323 110.471 0.724609 107.198 0.724609Z" fill="#131318"/>
<path id="Vector_4" d="M107.196 6.5625C105.971 6.5625 104.774 6.92389 103.756 7.60098C102.738 8.27807 101.944 9.24044 101.476 10.3664C101.007 11.4924 100.884 12.7313 101.123 13.9266C101.362 15.1219 101.952 16.2199 102.818 17.0817C103.684 17.9434 104.787 18.5303 105.988 18.7681C107.189 19.0058 108.434 18.8838 109.565 18.4174C110.697 17.951 111.664 17.1612 112.344 16.1479C113.024 15.1346 113.388 13.9432 113.388 12.7245C113.388 11.0902 112.735 9.5229 111.574 8.36731C110.413 7.21171 108.838 6.5625 107.196 6.5625ZM107.196 16.7243C106.401 16.7243 105.624 16.4897 104.963 16.0502C104.302 15.6107 103.787 14.986 103.483 14.2552C103.179 13.5243 103.099 12.7201 103.254 11.9442C103.409 11.1683 103.792 10.4556 104.354 9.8962C104.916 9.33682 105.632 8.95587 106.412 8.80154C107.192 8.6472 108 8.72641 108.734 9.02915C109.468 9.33189 110.096 9.84455 110.538 10.5023C110.979 11.1601 111.215 11.9334 111.215 12.7245C111.215 13.7853 110.792 14.8027 110.038 15.5528C109.284 16.3029 108.262 16.7243 107.196 16.7243Z" fill="#131318"/>
<path id="Vector_5" d="M113.633 7.75877C114.432 7.75877 115.08 7.11409 115.08 6.31884C115.08 5.52359 114.432 4.87891 113.633 4.87891C112.834 4.87891 112.186 5.52359 112.186 6.31884C112.186 7.11409 112.834 7.75877 113.633 7.75877Z" fill="#131318"/>
</svg>