<svg width="175" height="25" viewBox="0 0 175 25" fill="none" xmlns="http://www.w3.org/2000/svg">
<path id="Vector" d="M19.8879 7.38024C19.1421 7.71012 18.3548 7.9163 17.5262 8.04C18.3548 7.54518 19.0178 6.76171 19.3078 5.8133C18.5206 6.26689 17.6505 6.59677 16.6975 6.80295C15.9517 6.01948 14.8745 5.52466 13.7143 5.52466C11.4769 5.52466 9.6539 7.339 9.6539 9.5657C9.6539 9.89558 9.69533 10.1842 9.7782 10.4729C6.42212 10.3079 3.39751 8.69977 1.36729 6.22566C1.03583 6.84418 0.828661 7.50395 0.828661 8.24618C0.828661 9.64817 1.53302 10.8852 2.65171 11.6275C1.98879 11.5862 1.36729 11.4213 0.787228 11.1326V11.1739C0.787228 13.1532 2.19595 14.8026 4.06044 15.1737C3.72897 15.2562 3.35608 15.2974 2.98318 15.2974C2.73458 15.2974 2.44455 15.2562 2.19595 15.2149C2.73458 16.8231 4.22617 18.0189 6.00779 18.0189C4.59907 19.091 2.85888 19.7508 0.95296 19.7508C0.621495 19.7508 0.290031 19.7508 0 19.7096C1.82305 20.8641 3.93614 21.5239 6.25639 21.5239C13.7558 21.5239 17.8576 15.3386 17.8576 9.97805C17.8576 9.81311 17.8576 9.60694 17.8576 9.442C18.6449 8.90594 19.3492 8.20494 19.8879 7.38024Z" fill="#131318"/>
</svg>